<?xml version="1.0" standalone="no"?>
<svg xmlns:xlink="http://www.w3.org/1999/xlink" xmlns="http://www.w3.org/2000/svg" width="800" height="320" viewBox="0 0 800 320">
<title>One very basic form of Celtic or pseudo-Celtic linear knotwork (alternate).  By AnonMoos (public domain)</title>
<defs><path id="LoopOne" d="M157.109,79.0364C135.636,57.5637,106.512,45.5,76.1453,45.5H43.7598V274.5H76.1453C106.512,274.5,135.636,262.436,157.109,240.964L319.036,79.0364C340.509,57.5637,369.633,45.5,400,45.5C430.367,45.5,459.491,57.5637,480.964,79.0364L642.891,240.964C664.364,262.436,693.488,274.5,723.855,274.5H756.24V45.5H723.855C693.488,45.5,664.364,57.5637,642.891,79.0364L480.964,240.964C459.491,262.436,430.367,274.5,400,274.5C369.633,274.5,340.509,262.436,319.036,240.964Z"/>
<path id="LoopTwo" d="M319.036,240.964C297.564,262.436,268.44,274.5,238.073,274.5C174.836,274.5,123.573,223.237,123.573,160C123.573,96.7634,174.836,45.5,238.073,45.5C268.44,45.5,297.564,57.5637,319.036,79.0364L480.964,240.964C502.436,262.436,531.56,274.5,561.927,274.5C625.164,274.5,676.427,223.237,676.427,160C676.427,96.7634,625.164,45.5,561.927,45.5C531.56,45.5,502.436,57.5637,480.964,79.0364Z"/></defs>
<g transform="scale(1,-1)translate(0,-319.5)" stroke-width="45.8" stroke="#000000" fill="none">
<use stroke-width="64.12" stroke="#ffffff" xlink:href="#LoopOne"/>
<use stroke-width="64.12" stroke="#ffffff" xlink:href="#LoopTwo"/>
<use xlink:href="#LoopOne"/>
<use stroke-width="27.48" stroke="#ffffff" xlink:href="#LoopOne"/>
<use xlink:href="#LoopTwo"/>
<use stroke-width="27.48" stroke="#ffffff" xlink:href="#LoopTwo"/>
<path d="M544.752,177.175L579.102,142.825
M382.825,177.175L417.175,142.825
M220.898,177.175L255.248,142.825
M398.002,274.482C368.331,273.965,340.02,261.947,319.036,240.964L284.687,206.614
M401.998,45.5176C431.669,46.0354,459.98,58.0527,480.964,79.0364L515.313,113.386
M78.1436,45.5176C107.814,46.0354,136.125,58.0527,157.109,79.0364L191.459,113.386
M721.856,274.482C692.186,273.965,663.875,261.947,642.891,240.964L608.541,206.614"/>
<path stroke-width="27.48" stroke="#ffffff" d="M543.607,178.32L580.247,141.68
M381.68,178.32L418.32,141.68
M219.753,178.32L256.393,141.68
M400,274.5C369.633,274.5,340.509,262.436,319.036,240.964L283.542,205.469
M400,45.5C430.367,45.5,459.491,57.5637,480.964,79.0364L516.458,114.531
M76.1453,45.5C106.512,45.5,135.636,57.5637,157.109,79.0364L192.604,114.531
M723.855,274.5C693.488,274.5,664.364,262.436,642.891,240.964L607.396,205.469"/></g></svg>